<svg xmlns="http://www.w3.org/2000/svg" width="14" height="17.217" viewBox="0 0 14 17.217">
  <path id="Path_1903" data-name="Path 1903" d="M16.249-28.247a3.9,3.9,0,0,0,.91-2.408A1.994,1.994,0,0,0,17.132-31,3.82,3.82,0,0,0,14.6-29.69a3.7,3.7,0,0,0-.947,2.326,1.093,1.093,0,0,0,.037.313,1.447,1.447,0,0,0,.23.018A3.346,3.346,0,0,0,16.249-28.247Zm.616,1.406c-1.3,0-2.353.791-3.033.791-.717,0-1.664-.745-2.794-.745-2.142,0-4.32,1.774-4.32,5.111a10.518,10.518,0,0,0,1.8,5.708c.855,1.2,1.6,2.188,2.675,2.188s1.535-.708,2.85-.708c1.342,0,1.645.689,2.822.689s1.94-1.066,2.675-2.123a9.276,9.276,0,0,0,1.177-2.445,3.8,3.8,0,0,1-2.3-3.484,3.876,3.876,0,0,1,1.857-3.272A4.056,4.056,0,0,0,16.865-26.841Z" transform="translate(-6.717 31.005)" fill="#bbb"/>
</svg>
