<svg xmlns="http://www.w3.org/2000/svg" width="19.296" height="22.052" viewBox="0 0 19.296 22.052">
  <g id="battery-level-90-charging-svgrepo-com" transform="translate(0)">
    <path id="Path_22188" data-name="Path 22188" d="M5,6v9.648H9.135V14.27a2.755,2.755,0,0,1,.808-1.949L13.27,8.993V6ZM5,6" transform="translate(-0.865 2.27)" fill="#d8d7d7"/>
    <path id="Path_22189" data-name="Path 22189" d="M8.891,0A1.35,1.35,0,0,0,7.513,1.378V2.757H6.135a4.716,4.716,0,0,0-2,.49A4.094,4.094,0,0,0,2,6.891V17.917a4.685,4.685,0,0,0,.49,1.992,4.088,4.088,0,0,0,3.645,2.143h6.891V19.3H6.135a1.374,1.374,0,0,1-1.378-1.378V6.891A1.374,1.374,0,0,1,6.135,5.513H14.4a1.374,1.374,0,0,1,1.378,1.378V9.648h2.757V6.891A4.094,4.094,0,0,0,16.4,3.246a4.716,4.716,0,0,0-2-.49H13.026V1.378A1.35,1.35,0,0,0,11.648,0Zm8.27,11.026v.011a1.367,1.367,0,0,0-.974.393l-4.135,4.135a1.377,1.377,0,0,0-.4.974v1.378h4.318l-1.33,1.992a1.334,1.334,0,0,0-.221.765H14.4v1.378h1.378v-.005a1.372,1.372,0,0,0,.974-.4l4.135-4.135a1.372,1.372,0,0,0,.4-.974H21.3V15.161H16.978l1.33-1.992a1.386,1.386,0,0,0,.232-.765V11.026Zm0,0" transform="translate(-2 0)" fill="#d8d7d7"/>
  </g>
</svg>
