<svg id="Iconly_Bulk_Filter_2" data-name="Iconly/Bulk/Filter 2" xmlns="http://www.w3.org/2000/svg" width="16.001" height="16" viewBox="0 0 16.001 16">
  <g id="Filter_2" data-name="Filter 2" transform="translate(0)">
    <path id="Fill_1" data-name="Fill 1" d="M10.286,9.417,15.492,4.2A1.761,1.761,0,0,0,16,2.955V1.422C16,.462,15.238,0,14.3,0H1.7C.763,0,0,.462,0,1.422v1.56a1.763,1.763,0,0,0,.46,1.19L5.245,9.39a.477.477,0,0,0,.349.156l4.356.012a.469.469,0,0,0,.338-.14" transform="translate(0 0)" fill="#7da4ef"/>
    <path id="Fill_4" data-name="Fill 4" d="M0,0V5.867A.636.636,0,0,0,.284,6.4a.605.605,0,0,0,.333.1.622.622,0,0,0,.257-.056L4.4,4.8a.631.631,0,0,0,.362-.574V0Z" transform="translate(5.383 9.499)" fill="#7da4ef" opacity="0.4"/>
  </g>
</svg>
