<svg xmlns="http://www.w3.org/2000/svg" width="17.014" height="17.014" viewBox="0 0 17.014 17.014">
  <g id="Group_10526" data-name="Group 10526" transform="translate(-165.827 -55.499)">
    <path id="Path_21618" data-name="Path 21618" d="M180.35,57.991a8.507,8.507,0,1,0,2.492,6.015A8.452,8.452,0,0,0,180.35,57.991Zm-6.015,14.228a8.213,8.213,0,1,1,8.213-8.213A8.159,8.159,0,0,1,174.334,72.219Z" fill="#74b960"/>
    <path id="Path_21619" data-name="Path 21619" d="M415.078,309.456a4.706,4.706,0,0,0,4.706-4.706h-4.706Z" transform="translate(-240.744 -240.744)" fill="#74b960"/>
    <path id="Path_21620" data-name="Path 21620" d="M277.188,171.566h4.706V166.86A4.706,4.706,0,0,0,277.188,171.566Z" transform="translate(-107.56 -107.56)" fill="#74b960"/>
    <path id="Path_21621" data-name="Path 21621" d="M192.241,74.039a7.874,7.874,0,1,0,7.874,7.874A7.874,7.874,0,0,0,192.241,74.039Zm0,12.9a5.03,5.03,0,1,1,5.03-5.03A5.03,5.03,0,0,1,192.241,86.943Z" transform="translate(-17.907 -17.907)" fill="#74b960"/>
    <g id="Group_5463" data-name="Group 5463" transform="translate(173.183 56.562)">
      <path id="Path_21622" data-name="Path 21622" d="M382.775,88.708l.546-1.447v1.447h.415V86.635h-.624l-.567,1.484h.006l-.567-1.484h-.623v2.073h.415V87.261l.546,1.447Z" transform="translate(-381.361 -86.635)" fill="#fff"/>
    </g>
    <g id="Group_5464" data-name="Group 5464" transform="translate(177.782 58.145)">
      <path id="Path_21623" data-name="Path 21623" d="M518.478,134.37l-.781,1.106,1.211-.575.321.4-1.906.924-.376-.469.75-1.1,0-.005-1.228.505-.38-.466,1.3-1.673.321.4-.814,1.065,1.244-.534Z" transform="translate(-516.083 -133.019)" fill="#fff"/>
    </g>
    <path id="Path_21624" data-name="Path 21624" d="M230.892,142.635a.529.529,0,0,0-.666-.061.46.46,0,0,0,0-.309.731.731,0,0,0-.227-.286c-.278-.233-.571-.034-.78.215L228.21,143.4l1.59,1.334,1.067-1.271C231.11,143.171,231.148,142.884,230.892,142.635Zm-2.057.581.607-.724a.248.248,0,0,1,.332.005.218.218,0,0,1,.037.318l-.6.716Zm1.676.12-.633.755-.4-.333.638-.761a.26.26,0,0,1,.392.339Z" transform="translate(-60.254 -83.427)" fill="#fff"/>
  </g>
</svg>
