<svg xmlns="http://www.w3.org/2000/svg" width="16.835" height="16.837" viewBox="0 0 16.835 16.837">
  <g id="Iconly_Bulk_Call" data-name="Iconly/Bulk/Call" transform="translate(0 0.001)">
    <g id="Call" transform="translate(0 -0.001)">
      <path id="Call-2" data-name="Call" d="M13.609,10.42a1.918,1.918,0,0,0-1.409.37c-.406.237-1.178.862-1.619.7A10.044,10.044,0,0,1,5.267,6.307c-.162-.451.46-1.227.694-1.638a1.966,1.966,0,0,0,.367-1.418A11.532,11.532,0,0,0,4.368.517,1.609,1.609,0,0,0,3.385,0C2.121-.053.71,1.633.462,2.036A3.28,3.28,0,0,0,.473,5.429C1.988,9.157,7.7,14.783,11.442,16.35a4.521,4.521,0,0,0,1.889.485,2.457,2.457,0,0,0,1.474-.462c.321-.184,2.076-1.666,2.03-2.964a1.634,1.634,0,0,0-.512-.982,11.616,11.616,0,0,0-2.714-2.008" transform="translate(0 0.001)" fill="#7da4ef"/>
    </g>
  </g>
</svg>
