<svg xmlns="http://www.w3.org/2000/svg" width="16.172" height="16.173" viewBox="0 0 16.172 16.173">
  <g id="Iconly_Bold_Call" data-name="Iconly/Bold/Call" transform="translate(0 0.001)">
    <g id="Call" transform="translate(0 -0.001)">
      <path id="Call-2" data-name="Call" d="M13.072,10.009a1.843,1.843,0,0,0-1.354.356c-.39.227-1.132.828-1.555.674a9.648,9.648,0,0,1-5.1-4.981C4.9,5.625,5.5,4.88,5.726,4.485a1.888,1.888,0,0,0,.353-1.362A11.078,11.078,0,0,0,4.2.5,1.546,1.546,0,0,0,3.251,0C2.038-.051.682,1.568.444,1.956A3.15,3.15,0,0,0,.454,5.215C1.91,8.8,7.4,14.2,10.991,15.706a4.343,4.343,0,0,0,1.814.466,2.36,2.36,0,0,0,1.416-.444c.308-.177,1.994-1.6,1.95-2.847a1.569,1.569,0,0,0-.492-.943,11.159,11.159,0,0,0-2.607-1.928" transform="translate(0 0.001)" fill="#d8d7d7"/>
    </g>
  </g>
</svg>
