<svg xmlns="http://www.w3.org/2000/svg" width="28.658" height="21.493" viewBox="0 0 28.658 21.493">
  <path id="Path_21613" data-name="Path 21613" d="M26.27,15.344V24.3a1.194,1.194,0,0,1-1.194,1.194H23.881A1.194,1.194,0,0,1,22.687,24.3V23.105H5.97V24.3a1.194,1.194,0,0,1-1.194,1.194H3.582A1.194,1.194,0,0,1,2.388,24.3V15.344L.9,14.973A1.194,1.194,0,0,1,0,13.814v-.859a.6.6,0,0,1,.6-.6H2.836L5.389,5.55A2.388,2.388,0,0,1,7.625,4H21.032a2.388,2.388,0,0,1,2.236,1.55l2.553,6.809h2.239a.6.6,0,0,1,.6.6v.859a1.194,1.194,0,0,1-.9,1.158ZM4.776,17.135v2.388A1.194,1.194,0,0,0,5.97,20.717H9.845a.6.6,0,0,0,.526-.878h0Q8.926,17.135,4.776,17.135Zm19.105,0q-4.149,0-5.6,2.7h0a.6.6,0,0,0,.526.878h3.875a1.194,1.194,0,0,0,1.194-1.194ZM7.164,6.388,5.3,11.981a1.194,1.194,0,0,0,1.133,1.572H22.225a1.194,1.194,0,0,0,1.133-1.572L21.493,6.388Z" transform="translate(0 -4)" fill="#d8d7d7"/>
</svg>
