<svg xmlns="http://www.w3.org/2000/svg" width="18.968" height="24.388" viewBox="0 0 18.968 24.388">
  <path id="charge-svgrepo-com" d="M18.009,20.785l-.552.123v.743a2.924,2.924,0,0,1-1.9,2.76v2a.949.949,0,1,1-1.9,0v-2a2.924,2.924,0,0,1-1.9-2.76v-.689l-.247-.053-.56-.125A7.463,7.463,0,0,1,5.38,15.246a13.06,13.06,0,0,1,0-6.255,7.463,7.463,0,0,1,5.579-5.539l.56-.125a13.622,13.622,0,0,1,5.931,0l.56.125a7.463,7.463,0,0,1,5.579,5.539,13.059,13.059,0,0,1,0,6.255A7.463,7.463,0,0,1,18.009,20.785Zm-2.449.409q-.165.013-.33.022a13.611,13.611,0,0,1-1.567,0v.44a.949.949,0,1,0,1.9,0Zm.031-12.951a.8.8,0,0,1,.119,1.1l-1.543,1.984h2.215a.757.757,0,0,1,.684.442.8.8,0,0,1-.091.826l-2.529,3.252a.745.745,0,0,1-1.067.122.8.8,0,0,1-.118-1.1L14.8,12.885H12.588a.757.757,0,0,1-.684-.442A.8.8,0,0,1,12,11.617l2.529-3.252A.745.745,0,0,1,15.591,8.244Z" transform="translate(-5 -3)" fill="#7da4ef" fill-rule="evenodd"/>
</svg>
