<svg xmlns="http://www.w3.org/2000/svg" width="15.538" height="24.513" viewBox="0 0 15.538 24.513">
  <path id="path11774" d="M4.139,0,2.505,8.988c-.239,1.316,2.911,1.93,2.86,3.268L4.956,22.879a1.573,1.573,0,0,0,1.634,1.634,1.573,1.573,0,0,0,1.634-1.634L7.816,12.257c-.051-1.336,2.833-1.93,2.86-3.268L9.042,0H8.225l.409,6.537-1.226.817L7,0H6.182L5.773,7.354,4.548,6.537,4.956,0ZM18.03,0a5.235,5.235,0,0,0-4.012,2.675c-.669,1.2-.89,3.892-.89,5.5v4.086c0,1.337,1.783,1.634,2.451,1.634l-.817,8.988c-.148,1.628,1.634,1.634,1.634,1.634a1.6,1.6,0,0,0,1.634-1.634Z" transform="translate(-2.492)" fill="#7da4ef"/>
</svg>
