<svg xmlns="http://www.w3.org/2000/svg" width="12.587" height="16.488" viewBox="0 0 12.587 16.488">
  <path id="brand-ferrari-svgrepo-com" d="M8.713,1,2.42,2.462v4.6A9.756,9.756,0,0,0,2.508,8.2,13.148,13.148,0,0,0,3.15,10.84a12.251,12.251,0,0,0,5.236,6.448l.328.2.328-.2A12.758,12.758,0,0,0,15.007,7.057v-4.6Zm0,1.293,5.035,1.169v.81a17.423,17.423,0,0,0-5.035-.738,17.139,17.139,0,0,0-5.035.729v-.8L8.713,2.293Zm0,2.5a15.362,15.362,0,0,1,5.035.821V7.057a11.417,11.417,0,0,1-5.037,8.909,10.986,10.986,0,0,1-4.375-5.547,11.927,11.927,0,0,1-.58-2.388,6.89,6.89,0,0,1-.077-.974V5.612a14.953,14.953,0,0,1,5.035-.819Zm.246.631a.5.5,0,0,0-.188.4c-.565,0-.612.282-.753.363-.706.242-.8.081-.989.242a.328.328,0,0,0-.14.241c-.047.2.047.363.329.363.094,0,.283-.12.424-.12.235,0,.471.2.847.2.141,0,.282-.081.517-.4-.094.443-.235.6-.659.6a3.508,3.508,0,0,1-.706,1.53,2.53,2.53,0,0,1-1.178.484c-.047.04-.376,0-.423.12a.479.479,0,0,0,0,.363,3.436,3.436,0,0,0,.235.846.189.189,0,0,0,.141.161c.094.04.095.081.095.081a.982.982,0,0,0,.281.6s.472-.484.377-.645c-.047-.081-.331-.161-.331-.161V10.54A2.54,2.54,0,0,1,6.605,9.9h.8a4.5,4.5,0,0,0,1.506,1.289.948.948,0,0,1,.753-.283.858.858,0,0,0-.707,1.33c.33.564.33.685.283.806-.235.322-.282.362-.376.483-.047.081.046.122-.048.162a.942.942,0,0,0-.564.522s.8.081.942-.039c.047-.04.047-.242.047-.242a2.341,2.341,0,0,0,.236.041c.047-.04.14-.041.14-.081s.095-.2.095-.241a1.5,1.5,0,0,1,.424-.6c0-.04-.236-.281-.236-.4-.047-.524.471-.484,1.13-1.169.047-.081.141-.041.188-.041,1.224,0,1.083-.846,1.271-1.772-.375.362-.375.16-.375.16a2.192,2.192,0,0,1,.283-.967s-.472.242-.519.564c-.188-.322.141-.806.141-.806-.188.081-.424.242-.424.806,0,1.451-.047,1.37-.188,1.611-.047.04-.187.041-.14-.08-.047-.161.047-.523-1.083-1.088-.518-.282-.8-.727-.706-.928a1.2,1.2,0,0,0,.659.122,2.7,2.7,0,0,1-.565-.4,1.842,1.842,0,0,0,.942.12A2.1,2.1,0,0,1,9.666,8.2a1.406,1.406,0,0,0,.847.08C10.277,8.2,9.9,8.042,9.806,7.8a1.669,1.669,0,0,0,.8,0,1.871,1.871,0,0,1-.8-.524,2.047,2.047,0,0,1,.8.161c-.094-.242-.518-.443-.847-.644a3.56,3.56,0,0,0,.659,0c-.188-.161-.612-.323-.659-.4a.762.762,0,0,0,.424-.161c-.612,0-.706-.4-.942-.4-.094-.04-.236-.321-.283-.4ZM6.6,7.324A6.139,6.139,0,0,0,5.584,8.1a.3.3,0,0,0-.047.123.959.959,0,0,0-.6.37s.6.328.74.205a.755.755,0,0,0,.138-.328A.394.394,0,0,0,6,8.432l.138-.123c.138-.123.417-.328.417-.328.093.082.37.41.509.574A1.183,1.183,0,0,0,7.525,8.1C7.2,7.775,6.832,7.324,6.6,7.324Zm1.572,3.61c-.046.656.046,1.148-.045,1.19-.416.123-.647-.041-.832,0-.093.041-.046.124-.139.082a.983.983,0,0,0-.785.163s.555.576.74.535c.046,0,.231-.165.231-.165s.045.164.138.205c.046,0,.138.041.184,0a.642.642,0,0,1,.231-.123,2.7,2.7,0,0,1,.832-.165c.046-.082.093-.164.047-.246a1.147,1.147,0,0,1-.231-1.19C8.5,11.181,8.218,10.975,8.172,10.934Z" transform="translate(-2.42 -1)" fill="#74b960"/>
</svg>
