<svg id="Iconly_Bulk_Filter_2" data-name="Iconly/Bulk/Filter 2" xmlns="http://www.w3.org/2000/svg" width="18.231" height="18.23" viewBox="0 0 18.231 18.23">
  <g id="Filter_2" data-name="Filter 2" transform="translate(0)">
    <path id="Fill_1" data-name="Fill 1" d="M11.719,10.73,17.65,4.781a2.006,2.006,0,0,0,.58-1.414V1.621C18.231.527,17.362,0,16.29,0H1.941C.869,0,0,.527,0,1.621V3.4A2.008,2.008,0,0,0,.525,4.754L5.976,10.7a.544.544,0,0,0,.4.177l4.963.014a.535.535,0,0,0,.385-.16" transform="translate(0)" fill="#212226"/>
    <path id="Fill_4" data-name="Fill 4" d="M0,0V6.685a.724.724,0,0,0,.323.608.69.69,0,0,0,.38.114A.709.709,0,0,0,1,7.343L5.013,5.469a.719.719,0,0,0,.412-.654V0Z" transform="translate(6.134 10.823)" fill="#212226" opacity="0.4"/>
  </g>
</svg>
