<svg xmlns="http://www.w3.org/2000/svg" width="13.774" height="14" viewBox="0 0 13.774 14">
  <g id="Group_122" data-name="Group 122" transform="translate(-1025 -631)" style="isolation: isolate">
    <path id="google" d="M13.774,15.164A6.5,6.5,0,0,1,7,22,7,7,0,0,1,7,8a6.732,6.732,0,0,1,4.694,1.832L9.789,11.664C7.3,9.259,2.662,11.065,2.662,15A4.385,4.385,0,0,0,7,19.42,3.785,3.785,0,0,0,10.974,16.4H7V14h6.664A6.137,6.137,0,0,1,13.774,15.164Z" transform="translate(1025 623)" fill="#bbb"/>
  </g>
</svg>
