<svg xmlns="http://www.w3.org/2000/svg" width="23.842" height="24.5" viewBox="0 0 23.842 24.5">
  <g id="grocery-commerce-and-shopping-svgrepo-com" transform="translate(0)">
    <g id="Group_10553" data-name="Group 10553" transform="translate(0)">
      <g id="Group_10552" data-name="Group 10552" transform="translate(0)">
        <path id="Path_22196" data-name="Path 22196" d="M9.626,12.25a1.023,1.023,0,0,0-.948.641L6.893,17.354H30.734l-1.784-4.463A1.023,1.023,0,0,0,28,12.25H26.98V7.6A4.07,4.07,0,0,0,24.939,0H12.688a4.07,4.07,0,0,0-2.042,7.6V12.25Zm3.063-4.083a4.073,4.073,0,0,0,3.063-1.385,4.078,4.078,0,0,0,6.125,0,4.073,4.073,0,0,0,3.063,1.385V12.25H12.688Z" transform="translate(-6.892)" fill="#7da4ef"/>
        <path id="Path_22197" data-name="Path 22197" d="M6.876,405.325l1.785,4.463a1.022,1.022,0,0,0,.948.641H27.985a1.021,1.021,0,0,0,.947-.641l1.785-4.463Z" transform="translate(-6.876 -385.929)" fill="#7da4ef"/>
      </g>
    </g>
  </g>
</svg>
