<svg xmlns="http://www.w3.org/2000/svg" width="28.706" height="20.094" viewBox="0 0 28.706 20.094">
  <path id="rect6507" d="M.957,2.5A.9.9,0,0,0,0,3.457V21.637a.9.9,0,0,0,.957.957.9.9,0,0,0,.957-.957V18.767H26.792v2.871a.957.957,0,1,0,1.914,0V17.81a.9.9,0,0,0-.957-.957H1.914V3.457A.9.9,0,0,0,.957,2.5ZM6.7,3.457A2.943,2.943,0,0,0,3.827,6.327h0A2.943,2.943,0,0,0,6.7,9.2h0A2.943,2.943,0,0,0,9.569,6.327h0A2.943,2.943,0,0,0,6.7,3.457Zm6.7,1.914a2.811,2.811,0,0,0-2.871,2.871v2.871H4.784a.9.9,0,0,0-.957.957v1.914a.9.9,0,0,0,.957.957H28.706V10.155c0-4.784-4.784-4.784-4.784-4.784Z" transform="translate(0 -2.5)" fill="#7da4ef"/>
</svg>
