<svg xmlns="http://www.w3.org/2000/svg" width="25.425" height="22.513" viewBox="0 0 25.425 22.513">
  <g id="location-on-map-svgrepo-com" transform="translate(0 0)">
    <path id="Path_22183" data-name="Path 22183" d="M88.522,31.457a.853.853,0,0,0,1.128,0c.2-.18,5-4.453,5-8.885a5.563,5.563,0,1,0-11.125,0C83.523,27,88.317,31.277,88.522,31.457Zm.564-10.339a1.454,1.454,0,1,1-1.442,1.454A1.448,1.448,0,0,1,89.086,21.118Z" transform="translate(-76.373 -17.007)" fill="#d8d7d7" opacity="0.49"/>
    <path id="Path_22184" data-name="Path 22184" d="M43.7,155.041l-.644-2.258a.853.853,0,0,0-.82-.619h-4.6q-.249.371-.527.745a21.3,21.3,0,0,1-2.745,3.031,2.048,2.048,0,0,1-2.707,0,21.3,21.3,0,0,1-2.745-3.031q-.278-.374-.527-.745h-4.6a.853.853,0,0,0-.82.619l-.768,2.691,17.167,3.144Z" transform="translate(-20.299 -140.594)" fill="#d8d7d7"/>
    <path id="Path_22185" data-name="Path 22185" d="M191.789,205.665l-1.646-5.77-8.168,6.857h8.994a.853.853,0,0,0,.82-1.087Z" transform="translate(-166.397 -184.238)" fill="#d8d7d7"/>
    <path id="Path_22186" data-name="Path 22186" d="M4.178,204.789l-2.606-.477L.033,209.7a.853.853,0,0,0,.82,1.087H4.178Z" transform="translate(-0.001 -188.277)" fill="#d8d7d7"/>
    <path id="Path_22187" data-name="Path 22187" d="M62.746,212.445v5.782h8.349l4.159-3.491Z" transform="translate(-57.375 -195.714)" fill="#d8d7d7"/>
  </g>
</svg>
