<svg xmlns="http://www.w3.org/2000/svg" width="13.549" height="15.871" viewBox="0 0 13.549 15.871">
  <g id="microphone-2-svgrepo-com" transform="translate(0)">
    <path id="Path_22174" data-name="Path 22174" d="M3.831,9a.581.581,0,0,1,.581.581v.774a5.613,5.613,0,1,0,11.226,0V9.581a.581.581,0,0,1,1.161,0v.774a6.775,6.775,0,0,1-6.194,6.75v1.767a.581.581,0,0,1-1.161,0V17.1a6.775,6.775,0,0,1-6.194-6.75V9.581A.581.581,0,0,1,3.831,9Z" transform="translate(-3.25 -3.58)" fill="#bbb" fill-rule="evenodd"/>
    <path id="Path_22175" data-name="Path 22175" d="M8.96,6.452a.581.581,0,0,0-.581-.581H6.288a4.452,4.452,0,0,1,8.828,0H11.863a.581.581,0,0,0,0,1.161h3.29V8.194h-3.29a.581.581,0,0,0,0,1.161h3.253a4.452,4.452,0,0,1-8.828,0H8.379a.581.581,0,0,0,0-1.161H6.25V7.032H8.379A.581.581,0,0,0,8.96,6.452Z" transform="translate(-3.928 -2)" fill="#bbb" opacity="0.5"/>
    <path id="Path_22176" data-name="Path 22176" d="M12.75,10.581a.581.581,0,0,0,.581.581h3.253L16.621,10h-3.29A.581.581,0,0,0,12.75,10.581Z" transform="translate(-5.395 -3.806)" fill="#bbb"/>
    <path id="Path_22177" data-name="Path 22177" d="M12.75,7.581a.581.581,0,0,0,.581.581h3.29L16.584,7H13.331A.581.581,0,0,0,12.75,7.581Z" transform="translate(-5.395 -3.129)" fill="#bbb"/>
    <path id="Path_22178" data-name="Path 22178" d="M8.96,7.581A.581.581,0,0,0,8.379,7H6.288L6.25,8.161H8.379A.581.581,0,0,0,8.96,7.581Z" transform="translate(-3.928 -3.129)" fill="#bbb"/>
    <path id="Path_22179" data-name="Path 22179" d="M8.96,10.581A.581.581,0,0,0,8.379,10H6.25l.038,1.161H8.379A.581.581,0,0,0,8.96,10.581Z" transform="translate(-3.928 -3.806)" fill="#bbb"/>
  </g>
</svg>
