<svg xmlns="http://www.w3.org/2000/svg" width="13.642" height="12.835" viewBox="0 0 13.642 12.835">
  <path id="Fill_1" data-name="Fill 1" d="M13.056,7.74A3.117,3.117,0,0,1,12.2,5.455V5.112a4.451,4.451,0,0,0-.959-3.006A5.65,5.65,0,0,0,6.857,0H6.786A5.674,5.674,0,0,0,2.469,2.017a4.513,4.513,0,0,0-1.03,3.1v.343A3.048,3.048,0,0,1,.586,7.74,2.7,2.7,0,0,0,0,9.595,2.9,2.9,0,0,0,.693,11.5,3.637,3.637,0,0,0,3.02,12.637a33.418,33.418,0,0,0,3.8.2c1.278,0,2.539-.091,3.8-.2A3.637,3.637,0,0,0,12.949,11.5a2.9,2.9,0,0,0,.693-1.908,2.7,2.7,0,0,0-.586-1.854" transform="translate(0 0)" fill="#7da4ef"/>
</svg>
