<svg xmlns="http://www.w3.org/2000/svg" width="24.388" height="24.388" viewBox="0 0 24.388 24.388">
  <path id="park-svgrepo-com" d="M23.949,22.73a1.219,1.219,0,0,0,0-2.439V19.072a1.219,1.219,0,1,0,0-2.439V15.413a1.219,1.219,0,1,0-2.439,0v1.219H14.194V15.413a1.219,1.219,0,1,0-2.439,0v1.219a1.219,1.219,0,1,0,0,2.439v1.219a1.219,1.219,0,1,0,0,2.439v1.219H8.1V14.194a1.194,1.194,0,0,0-.033-.162,4.868,4.868,0,0,0,3.691-4.715V6.878A4.878,4.878,0,0,0,2,6.878V9.316a4.868,4.868,0,0,0,3.691,4.715,1.194,1.194,0,0,0-.033.162v9.755H2v2.439H26.388V23.949H23.949ZM21.51,23.949H14.194V22.73H21.51Zm0-3.658H14.194V19.072H21.51Z" transform="translate(-2 -2)" fill="#7da4ef"/>
</svg>
