<svg xmlns="http://www.w3.org/2000/svg" width="20.159" height="20.159" viewBox="0 0 20.159 20.159">
  <path id="path" d="M20.734,13.5A8.184,8.184,0,0,1,13.5,20.734v1.008a.916.916,0,1,1-1.833,0V20.734A8.018,8.018,0,0,1,4.424,13.5H3.416a.916.916,0,1,1,0-1.833H4.424a8.018,8.018,0,0,1,7.239-7.239V3.416a.916.916,0,1,1,1.833,0V4.424a8.184,8.184,0,0,1,7.239,7.239h1.008a.916.916,0,0,1,0,1.833Zm-8.155,5.5a6.414,6.414,0,1,0-6.414-6.414,6.375,6.375,0,0,0,6.414,6.414Zm0-2.749a3.665,3.665,0,1,1,3.665-3.665,3.676,3.676,0,0,1-3.665,3.665Z" transform="translate(-2.5 -2.5)" fill="#212226"/>
</svg>
