<svg xmlns="http://www.w3.org/2000/svg" width="34" height="34" viewBox="0 0 34 34">
  <path id="plug-svgrepo-com" d="M21.5,7.29A13.71,13.71,0,1,0,35.21,21,13.71,13.71,0,0,0,21.5,7.29ZM21.5,38a17,17,0,1,0-17-17A17,17,0,0,0,21.5,38ZM16.565,14.419a1.645,1.645,0,1,0-3.29,0v4.387a1.645,1.645,0,1,0,3.29,0Zm11.516-1.645a1.645,1.645,0,0,1,1.645,1.645v4.387a1.645,1.645,0,0,1-3.29,0V14.419A1.645,1.645,0,0,1,28.081,12.774ZM21.5,21.548a1.645,1.645,0,0,1,1.645,1.645v4.387a1.645,1.645,0,1,1-3.29,0V23.194A1.645,1.645,0,0,1,21.5,21.548Z" transform="translate(-4.5 -4)" fill-rule="evenodd"/>
</svg>
