<svg xmlns="http://www.w3.org/2000/svg" width="12.93" height="16.127" viewBox="0 0 12.93 16.127">
  <g id="porsche-3-logo-svg-vector" transform="translate(-2.035 -0.436)">
    <path id="Path_21630" data-name="Path 21630" d="M33.2,18.783a15.068,15.068,0,0,1-3.568,2.288A17.076,17.076,0,0,1,26,18.864a6.132,6.132,0,0,1-2.283-3.618l-.64-9.475A24.569,24.569,0,0,1,36,5.847l-.649,9.379A6.156,6.156,0,0,1,33.2,18.783Zm1.411-3.868L35.2,6.54a20.823,20.823,0,0,0-11.329-.115l.6,8.485a5.267,5.267,0,0,0,1.912,3.264A13.512,13.512,0,0,0,29.6,20.24,16.235,16.235,0,0,0,32.812,18.1,5.226,5.226,0,0,0,34.612,14.915Zm-1.941,2.959A14.754,14.754,0,0,1,29.6,19.938,11.438,11.438,0,0,1,26.5,17.927a4.6,4.6,0,0,1-1.773-3.171l-.587-8.1a19.911,19.911,0,0,1,10.812.095l-.58,7.991A4.741,4.741,0,0,1,32.671,17.874ZM24.408,6.815l.116,1.4a19.267,19.267,0,0,1,10.041.131l.128-1.42A19.381,19.381,0,0,0,24.408,6.815Zm8.56.518L32.191,7.2l-.03.365-.253-.038.059-.968.258.038-.027.372.787.127.026-.372.264.05-.08.971L32.939,7.7l.028-.369ZM29.221,7a.23.23,0,0,1-.22-.11.538.538,0,0,1,0-.368.22.22,0,0,1,.2-.111h1.1l0,.238H29.266c-.051,0-.053.115,0,.115h.821A.221.221,0,0,1,30.3,6.9a.724.724,0,0,1,0,.341.208.208,0,0,1-.218.118H29V7.118h.967a.057.057,0,0,0,0-.114h-.74Zm-.637.1a.091.091,0,0,0-.095-.089l-.73.053.015.362-.237.024-.05-.956,1.088-.081a.207.207,0,0,1,.23.183c.008.1.012.238-.069.294a.259.259,0,0,1,.087.229l0,.245-.237.009Zm-.155-.31c.093-.005.085-.15,0-.142l-.7.053.008.133Zm-2.278-.127a7.77,7.77,0,0,1,.92-.143.183.183,0,0,1,.21.134,2.378,2.378,0,0,1,.033.671.192.192,0,0,1-.164.16,7.837,7.837,0,0,1-.908.128.187.187,0,0,1-.185-.126,2.575,2.575,0,0,1-.047-.663A.2.2,0,0,1,26.151,6.664Zm.869.582a.071.071,0,0,0,.047-.065,1.3,1.3,0,0,0-.016-.334c-.005-.026-.027-.042-.076-.038a6.212,6.212,0,0,0-.656.1c-.046.011-.064.038-.066.062a1.739,1.739,0,0,0,.027.335.056.056,0,0,0,.057.038,5.824,5.824,0,0,0,.683-.095ZM30.856,6.7a.085.085,0,0,0-.091.057,2.193,2.193,0,0,0-.016.317c0,.018.03.066.055.07.233.032.684.073.931.089l-.015.25c-.323-.015-.661-.066-1.012-.091a.192.192,0,0,1-.2-.181,3.192,3.192,0,0,1,.037-.619.206.206,0,0,1,.223-.147,9.7,9.7,0,0,1,1,.1l-.016.249C31.547,6.777,31.157,6.716,30.856,6.7Zm-5.293.073c.327-.077.377.5.1.572l-.763.191.037.376-.239.064L24.616,7l.947-.223Zm0,.381c.078-.018.068-.158-.016-.141l-.688.166.016.145Zm8.094.32-.016.157.756.191-.02.219-1.014-.239.088-.986,1.021.248-.023.23-.76-.184-.015.166.755.184-.019.195Zm-7.316,2.806a1.651,1.651,0,0,0-.249.541.2.2,0,0,0-.005.126c.1-.045.23-.088.306-.112.03-.066.046-.142.072-.2a1.177,1.177,0,0,1,.108-.2.8.8,0,0,1,.563-.367,1.686,1.686,0,0,0-.243.27,1.367,1.367,0,0,0-.111.216.676.676,0,0,0-.041.173,1.343,1.343,0,0,1,.256-.053c.042-.023.055-.068.078-.11a.961.961,0,0,1,.3-.333.364.364,0,0,1,.253-.053.993.993,0,0,0-.2.216.617.617,0,0,0-.1.239.808.808,0,0,0,.2-.009l0-.187h1.944V7.779a18.091,18.091,0,0,0-4.926.634l.362,4.995h2.62v-.976a1.346,1.346,0,0,0-.9-.018,2.154,2.154,0,0,0-.419.216l-.3.241a.156.156,0,0,0-.032.118.148.148,0,0,1-.162.138.328.328,0,0,0-.172-.012c-.064.013-.12-.066-.126-.112s.037-.131.039-.156a.183.183,0,0,1,.072-.169.132.132,0,0,1,.128,0,.05.05,0,0,0,.037.005.408.408,0,0,0,.06-.046c0-.054,0-.139,0-.187a1.157,1.157,0,0,1,.046-.234,1.358,1.358,0,0,1,.116-.253.419.419,0,0,1,.314-.216.868.868,0,0,0-.084.138,1.636,1.636,0,0,0-.131.383.7.7,0,0,0-.02.207,2.04,2.04,0,0,1,.219-.139,1.458,1.458,0,0,1,.135-.385.5.5,0,0,1,.369-.257,1.064,1.064,0,0,0-.222.4.307.307,0,0,0-.02.12.613.613,0,0,1,.181-.053,1.474,1.474,0,0,1,.1-.216.524.524,0,0,1,.367-.257,1.126,1.126,0,0,0-.184.325.364.364,0,0,0-.02.1,1.369,1.369,0,0,1,.185-.009c.068-.061.116-.134.2-.2a.994.994,0,0,1,.223-.13v-.821a.871.871,0,0,0-.322-.02A4.025,4.025,0,0,0,25.9,11.4a.985.985,0,0,1-.026.162.219.219,0,0,1-.105.1c-.077.034-.166-.069-.206-.054a.219.219,0,0,1-.22-.016.186.186,0,0,1-.049-.176.273.273,0,0,1,.081-.108c.027-.027.008-.131.105-.193a.244.244,0,0,1,.233.03.1.1,0,0,0,.039-.023c.009-.028.024-.115.038-.183a1.911,1.911,0,0,1,.043-.188,1.4,1.4,0,0,1,.319-.522.621.621,0,0,1,.4-.162C26.534,10.087,26.381,10.223,26.337,10.284Zm.313-1.6a.851.851,0,0,1,.582-.347,1.408,1.408,0,0,0-.284.325,1.3,1.3,0,0,0-.183.483,3.183,3.183,0,0,1,.325-.092,1.378,1.378,0,0,1,.325-.486.524.524,0,0,1,.362-.128.789.789,0,0,1-.115.108.633.633,0,0,0-.149.216,2.211,2.211,0,0,0-.074.246,1.752,1.752,0,0,1,.294.02.709.709,0,0,1,.636-.3c-.124.068-.352.265-.338.373.187.12.465.373.477.607a1.413,1.413,0,0,0-.442-.3,1.64,1.64,0,0,0-.806-.055,4.358,4.358,0,0,0-1.434.592.549.549,0,0,1-.083.216.239.239,0,0,1-.134.08.316.316,0,0,1-.191-.046c-.037-.02-.133.005-.193-.027a.167.167,0,0,1-.089-.179c.015-.085.1-.137.112-.218A.205.205,0,0,1,25.4,9.59a.242.242,0,0,1,.143.027.485.485,0,0,0,.057.031.629.629,0,0,0,.058-.034c0-.014.049-.261.073-.369a2.707,2.707,0,0,1,.1-.3c.106-.3.431-.6.693-.587a2.868,2.868,0,0,0-.214.215A1.619,1.619,0,0,0,26,9.427c.145-.068.27-.116.4-.164a2.308,2.308,0,0,1,.124-.364,1.249,1.249,0,0,1,.122-.217Zm7.882.333-4.834,0,0,1.423,4.721,0Zm-4.279,7.367a.2.2,0,0,1-.153,0,.147.147,0,0,1-.085-.128c0-.046.041-.1.05-.152,0-.02-.018-.12.068-.172a.187.187,0,0,1,.1-.022c.034.007.061.028.095.034a.66.66,0,0,0,.131-.064,2.718,2.718,0,0,0,.061-.331,2.178,2.178,0,0,1-.828.212v3.891a13.88,13.88,0,0,0,2.9-2.028A4.306,4.306,0,0,0,34.1,14.734l.08-1.106-2.566,0a2.157,2.157,0,0,1-.809,1.756,2.235,2.235,0,0,0-.047.372c.083-.034.16-.064.227-.084a2.9,2.9,0,0,1,.145-.275,1.113,1.113,0,0,1,.4-.38.446.446,0,0,1,.344-.059,1.175,1.175,0,0,0-.331.27.786.786,0,0,0-.172.271.5.5,0,0,0-.011.054,3.772,3.772,0,0,1,.381-.066c.011,0,.039-.062.061-.092a1.241,1.241,0,0,1,.086-.108.6.6,0,0,1,.481-.22.88.88,0,0,0-.3.325c-.012.024-.028.058-.022.073.027.005.161,0,.242.012a.955.955,0,0,1,.3-.132.442.442,0,0,1,.34.051.492.492,0,0,0-.208.035.307.307,0,0,0-.142.1.985.985,0,0,1,.417.322.5.5,0,0,1,.066.446.7.7,0,0,0-.054-.123.8.8,0,0,0-.185-.214,1.409,1.409,0,0,0-1.11-.173,3.459,3.459,0,0,0-1.233.44.178.178,0,0,1-.061.153c-.055.041-.134-.015-.174.007Zm.6.437c.04-.062.089-.153.114-.192a.78.78,0,0,1,.292-.277.557.557,0,0,1,.383-.047.636.636,0,0,0-.223.108,1.255,1.255,0,0,0-.225.21.681.681,0,0,0-.07.128,1.638,1.638,0,0,1,.289-.042,1.665,1.665,0,0,1,.258-.262A.4.4,0,0,1,32,16.384a.8.8,0,0,0-.319.253.247.247,0,0,0-.028.057c.05,0,.145.014.2.02a1.746,1.746,0,0,1,.21-.1.3.3,0,0,1,.3.038.444.444,0,0,0-.166.027.256.256,0,0,0-.124.093.845.845,0,0,1,.345.268.306.306,0,0,1,.047.219.555.555,0,0,0-.141-.127,1.217,1.217,0,0,0-.187-.1,1.8,1.8,0,0,0-.811-.081,2.471,2.471,0,0,0-.935.345.155.155,0,0,1-.054.156c-.077.039-.151-.027-.165-.023a.2.2,0,0,1-.127.009.13.13,0,0,1-.055-.146.351.351,0,0,1,.068-.092.125.125,0,0,1,.12-.142c.042,0,.072.028.106.035l.069-.034c.019-.068.047-.137.066-.193a1.119,1.119,0,0,1,.135-.27.524.524,0,0,1,.41-.253.629.629,0,0,0-.119.107,1.289,1.289,0,0,0-.143.218.7.7,0,0,0-.076.262q.115-.055.233-.1Zm-.026.732a.293.293,0,0,1,.143-.027.532.532,0,0,0-.246.307c0,.013,0,.04.009.049a1.233,1.233,0,0,0,.137-.037.717.717,0,0,1,.07-.1.347.347,0,0,1,.358-.176.428.428,0,0,0-.212.2c-.008.015-.013.043,0,.043l.145,0a.364.364,0,0,1,.28-.092.479.479,0,0,0-.128.088.086.086,0,0,0-.024.04,1.08,1.08,0,0,1,.227.149.408.408,0,0,1,.122.189,1.146,1.146,0,0,0-.491-.2,1.187,1.187,0,0,0-.272.027,2.5,2.5,0,0,0-.665.269.142.142,0,0,1-.05.123c-.03.024-.095.037-.119,0-.013-.019-.1,0-.12-.023a.179.179,0,0,1-.026-.077.12.12,0,0,1,.052-.095c.007-.008.005-.084.062-.11a.1.1,0,0,1,.1.008l.03-.019a.915.915,0,0,1,.055-.257c.045-.125.191-.276.316-.271a.757.757,0,0,0-.177.325.888.888,0,0,0-.009.131.61.61,0,0,1,.095-.047c.014-.033.053-.114.073-.15A.641.641,0,0,1,30.829,17.552Zm-5.807-2.675a2.973,2.973,0,0,0,.472,1.432h3.934l-.008-.549a2.01,2.01,0,0,1-1.584-.881l-2.815,0Zm2.7-1.227a1.83,1.83,0,1,0,3.66.026V10.664H27.728Zm1.179-1.2A.347.347,0,0,0,29,12.288c.007-.043-.115-.041-.16-.013a.261.261,0,0,0-.066.072.066.066,0,0,1-.087.014c-.026-.024.02-.066.019-.092,0-.043-.083.022-.12,0a.05.05,0,0,1-.009-.074c.009-.012.037-.007.049-.02a.11.11,0,0,0,.016-.051c.005-.02.027-.03.041-.045a.743.743,0,0,1,.168-.134c.045,0,.108.027.147.007.008,0,.023-.018.009-.026l-.105-.069a.074.074,0,0,1,.024-.058c.049-.043.124-.013.188-.023a.217.217,0,0,0,.119-.055c.008.032-.012.065-.012.1.041.038.083.07.122.107a.669.669,0,0,1,.174.434c.007.069.007.139.007.254a.823.823,0,0,0-.08-.67,1.091,1.091,0,0,0-.143-.162c.005-.054.051-.146.095-.112s-.013.054.016.073a.153.153,0,0,0,.1.013.924.924,0,0,1,.137-.028c.02,0,.054-.011.061.009s-.009.023-.024.028-.045,0-.059.016-.024.026-.02.043a.037.037,0,0,0,.049.024,1.063,1.063,0,0,1,.25-.038c.045,0,.035.033.014.045a.16.16,0,0,1-.053.016c-.08.009-.139.015-.13.061s.057,0,.068.024-.022.038-.019.054c.008.051.107.041.153.03s.088-.035.1-.013a.036.036,0,0,1-.016.054.425.425,0,0,0-.156.065.057.057,0,0,0,.03.081,1.158,1.158,0,0,1,.168.02.04.04,0,0,1,.032.037c0,.02-.02.027-.037.032s-.084.009-.112.022c-.009,0-.028.011-.026.022s.049.015.083.019.055.016.055.037-.019.028-.053.026a.311.311,0,0,0-.124.012c-.007,0-.047.008-.046.027s.046.008.057.031-.02.034-.023.061c0,.011.005.016.016.02A.2.2,0,0,0,30,12.6c.037-.007.05.042.04.047-.047.026-.153,0-.177.013s.057.07.054.081a.041.041,0,0,1-.022.027c-.046.018-.105-.016-.139,0s-.016.062-.034.085-.07.016-.092.032a.066.066,0,0,0,0,.1.3.3,0,0,0,.078.054.885.885,0,0,0,.423.131,1.016,1.016,0,0,1,.249.008.758.758,0,0,1,.21.111.169.169,0,0,0,.137.011.074.074,0,0,0,.047-.081c-.02-.108-.2-.142-.2-.25a.555.555,0,0,0-.054-.271c-.015-.03-.018-.1.018-.108s.038.032.061.023c.1-.041.108-.206.217-.237.063-.018.277-.02.26-.047a.152.152,0,0,1,0-.17c.016-.022.061-.043.079-.022s-.037.062-.033.1.061.115.018.156c-.026.024-.219.033-.276.119-.035.053-.039.095,0,.091s.062-.045.093-.068c.055-.04.1-.057.131-.027s-.005.043-.035.051-.084.072-.068.088.16-.092.193-.068c.018.013-.066.1-.052.123s.074-.016.092.005-.045.1-.085.124-.019.1-.064.119-.073.067-.068.074.018.019.037.007c.055-.035.124-.077.153-.066s-.007.084-.027.12.083.016.068.047a.153.153,0,0,0-.011.091c.008.042-.111.051-.122.08a.028.028,0,0,0,.024.042.059.059,0,0,1,.034.105.189.189,0,0,1-.16.043.561.561,0,0,1-.223-.077.035.035,0,0,0-.054.016c0,.023.02.065.031.1a.305.305,0,0,1-.011.171c-.038.107-.139.2-.168.325a.2.2,0,0,0,.016.108.823.823,0,0,0,.122.2.081.081,0,0,1,.008.058c-.011.027-.095.085-.119.108a.478.478,0,0,0-.158.266c-.005.037-.084.073-.137.088a.307.307,0,0,0-.112.047c0,.03.013.055.017.085.007.052-.058.077-.108.093a.221.221,0,0,1-.074.015c-.009,0-.012-.016-.011-.024a.82.82,0,0,1,.055-.185.178.178,0,0,1,.046-.054l.193-.162.152-.218a.1.1,0,0,0,.019-.053.146.146,0,0,0-.047-.108.576.576,0,0,0-.135-.061,1.172,1.172,0,0,1-.143-.108c-.03-.015-.047.039-.051.07a1.229,1.229,0,0,0,.007.139.066.066,0,0,1-.013.047c-.127.073-.285.1-.379.216a.261.261,0,0,1-.053.057c-.053.037-.141-.005-.18.051-.018.026,0,.06,0,.088s-.035.038-.06.05a.3.3,0,0,1-.1.026c-.039-.019-.015-.074,0-.114a.243.243,0,0,1,.064-.108.844.844,0,0,1,.141-.11c.031-.015.078-.015.116-.03a.413.413,0,0,0,.112-.054.376.376,0,0,0,.138-.138.21.21,0,0,0-.014-.216.9.9,0,0,1-.115-.164.111.111,0,0,1,.019-.107s-.018-.012-.027-.009a1.378,1.378,0,0,1-.569-.085c-.047-.019-.1-.08-.13-.084s-.05.035-.081.043a.527.527,0,0,1-.173,0,1.882,1.882,0,0,1-.31-.069.125.125,0,0,0-.049.015.094.094,0,0,0-.027.074c0,.037.008.07,0,.108,0,.019-.012.039-.007.057s.027.031.042.045a.157.157,0,0,1,.028.108c0,.042-.015.1.02.126s.051-.005.078,0,.039.042.041.07a.238.238,0,0,1-.043.119c-.012.012-.032,0-.047,0a.21.21,0,0,1-.1-.084c-.009-.016-.009-.037-.019-.054a.207.207,0,0,0-.069-.068.155.155,0,0,1-.045-.108.58.58,0,0,1,.005-.108.683.683,0,0,0-.014-.216.361.361,0,0,1-.028-.162.092.092,0,0,1,.049-.061,1.546,1.546,0,0,0,.385-.068l-.081-.08c-.02,0-.037.02-.057.02s-.051-.031-.06-.042a.668.668,0,0,1-.088-.207.163.163,0,0,0-.072-.07.165.165,0,0,0-.072-.014.209.209,0,0,0-.135.162c0,.019.009.035.007.054a.14.14,0,0,1-.051.077.185.185,0,0,0-.054.078.115.115,0,0,0,.013.081.071.071,0,0,1,.011.054c-.016.045-.123.091-.154.091-.011,0-.02-.015-.024-.027a.258.258,0,0,1,0-.124.281.281,0,0,0,.062-.108.917.917,0,0,1,.034-.162,3.531,3.531,0,0,1,.274-.379.068.068,0,0,1,.066-.013c.073.047.116.105.187.142.038.019.085.047.119.02s.039-.208.061-.254a1.692,1.692,0,0,1,.225-.271Zm1.346-1.127-.03.114h-.108l.141-.533h.123l.135.529h-.108l-.027-.11h-.126Zm.111-.1-.049-.214-.046.214Zm-.4-.169c0-.035-.009-.081-.038-.092a.064.064,0,0,0-.074.019.32.32,0,0,0-.022.168.66.66,0,0,0,.011.145c.023.072.084.076.114.031a.191.191,0,0,0,.014-.1H29.91v-.078h.161v.287h-.077V11.4a.313.313,0,0,1-.052.037.171.171,0,0,1-.12-.005.178.178,0,0,1-.084-.123,1.028,1.028,0,0,1-.008-.216.234.234,0,0,1,.095-.188.212.212,0,0,1,.153-.005.163.163,0,0,1,.088.164Zm-1.812-.145a.133.133,0,0,1,.058.135H28.13c0-.054-.023-.08-.069-.081a.069.069,0,0,0-.064.055c0,.072.062.087.105.1a.158.158,0,0,1,.1.234.174.174,0,0,1-.108.084.192.192,0,0,1-.157-.031.151.151,0,0,1-.049-.141h.1a.1.1,0,0,0,.015.061.065.065,0,0,0,.049.03.07.07,0,0,0,.074-.077c-.005-.083-.143-.088-.191-.141a.162.162,0,0,1,.007-.211.174.174,0,0,1,.216-.018Zm2.731.353c0,.02,0,.092.005.138a.106.106,0,0,0,.015.032h-.1c-.014,0-.015-.024-.016-.045,0-.054,0-.183-.05-.183h-.065v.226h-.1v-.527h.183a.121.121,0,0,1,.138.124c0,.047,0,.1-.055.126A.175.175,0,0,1,30.888,11.265Zm-.139-.282h-.076v.142h.055C30.82,11.125,30.819,10.983,30.749,10.983Zm-2.284.454h-.1v-.445h-.116V10.9h.335v.089h-.118v.445Zm.653,0v-.445H29V10.9h.337v.089H29.22v.445h-.1Zm.266-.534h.337v.091H29.6v.444h-.1v-.444h-.116Zm1.759.091v.445h-.1v-.445h-.116V10.9h.335v.091Zm-2.3.29V10.9h.1v.371a.161.161,0,1,1-.322.007V10.9h.1v.381a.062.062,0,1,0,.125,0Zm.228.4a1.067,1.067,0,0,1,.12-.092c.043-.028-.005.037-.008.064-.008.073-.064.081-.124.068C29.053,11.719,29.057,11.7,29.076,11.682Zm2.544,1.705H34.2l.115-1.428h-2.7Zm-2.179,4.448-2.664-.005a13.239,13.239,0,0,0,2.656,1.792ZM27.512,11.92a.917.917,0,0,0-.175.211,1.03,1.03,0,0,1,.175.084V11.92Z" transform="translate(-21.039 -4.508)" fill="#74b960" fill-rule="evenodd"/>
  </g>
</svg>
