<svg xmlns="http://www.w3.org/2000/svg" width="24.879" height="24.513" viewBox="0 0 24.879 24.513">
  <g id="restroom-mark-4-svgrepo-com" transform="translate(0 0)">
    <path id="Path_22192" data-name="Path 22192" d="M323.939,11.017a3.629,3.629,0,1,0-3.629-3.629A3.629,3.629,0,0,0,323.939,11.017Z" transform="translate(-304.745 -3.759)" fill="#7da4ef"/>
    <path id="Path_22193" data-name="Path 22193" d="M45.944,11.017a3.629,3.629,0,1,0-3.629-3.629A3.629,3.629,0,0,0,45.944,11.017Z" transform="translate(-40.258 -3.759)" fill="#7da4ef"/>
    <path id="Path_22194" data-name="Path 22194" d="M289.178,206.678,284.2,194.966a.571.571,0,0,0-1.052,0l-4.977,11.711a2.286,2.286,0,0,0,2.1,3.18h6.8a2.286,2.286,0,0,0,2.1-3.18Z" transform="translate(-264.481 -185.344)" fill="#7da4ef"/>
    <path id="Path_22195" data-name="Path 22195" d="M9.085,194.619h-6.8a2.286,2.286,0,0,0-2.1,3.18L5.16,209.511a.571.571,0,0,0,1.052,0L11.189,197.8a2.286,2.286,0,0,0-2.1-3.18Z" transform="translate(0 -185.345)" fill="#7da4ef"/>
  </g>
</svg>
