<svg id="Iconly_Bulk_Bookmark" data-name="Iconly/Bulk/Bookmark" xmlns="http://www.w3.org/2000/svg" width="13.211" height="16.511" viewBox="0 0 13.211 16.511">
  <g id="Bookmark" transform="translate(0 0)">
    <path id="Bookmark_2" data-name="Bookmark 2" d="M6.595,4.054,1.238,6.73A.841.841,0,0,1,.1,6.4.9.9,0,0,1,0,5.99V0C0,.594.335.961,1.216,1.371Z" transform="translate(0.004 9.669)" fill="#74b960" opacity="0.77"/>
    <path id="Bookmark-2" data-name="Bookmark" d="M12.361,16.5a.835.835,0,0,1-.418-.112l-5.35-2.676L1.215,11.032C.329,10.62,0,10.248,0,9.662V3.129A2.741,2.741,0,0,1,1.183.72,5.071,5.071,0,0,1,4.043,0h5.1A5.107,5.107,0,0,1,12,.72a2.773,2.773,0,0,1,1.2,2.409V15.651a.879.879,0,0,1-.1.4.844.844,0,0,1-.508.413.835.835,0,0,1-.232.036ZM3.486,4.984a.653.653,0,0,0,0,1.3H9.695a.653.653,0,0,0,0-1.3Z" transform="translate(0.005 0.007)" fill="#74b960"/>
  </g>
</svg>
