<svg xmlns="http://www.w3.org/2000/svg" width="17.022" height="21.274" viewBox="0 0 17.022 21.274">
  <g id="Iconly_Bulk_Bookmark" data-name="Iconly/Bulk/Bookmark" transform="translate(0 0)">
    <g id="Bookmark" transform="translate(0 0)">
      <path id="Bookmark_2" data-name="Bookmark 2" d="M8.5,5.224,1.6,8.672A1.084,1.084,0,0,1,.132,8.246,1.159,1.159,0,0,1,0,7.718V0C0,.766.432,1.238,1.566,1.766Z" transform="translate(0.005 12.458)" fill="#d8d7d7" opacity="0.77"/>
      <path id="Bookmark-2" data-name="Bookmark" d="M15.929,21.267a1.076,1.076,0,0,1-.538-.145L8.5,17.674,1.567,14.217C.426,13.686,0,13.206,0,12.451V4.034A3.532,3.532,0,0,1,1.526.93,6.534,6.534,0,0,1,5.211,0h6.565A6.58,6.58,0,0,1,15.461.93a3.573,3.573,0,0,1,1.552,3.1V20.169a1.132,1.132,0,0,1-.131.52,1.088,1.088,0,0,1-.655.532,1.076,1.076,0,0,1-.3.047ZM4.493,6.424a.841.841,0,0,0,0,1.681h8a.841.841,0,0,0,0-1.681Z" transform="translate(0.005 0.007)" fill="#d8d7d7"/>
    </g>
  </g>
</svg>
