<svg xmlns="http://www.w3.org/2000/svg" width="20.579" height="16.837" viewBox="0 0 20.579 16.837">
  <g id="Iconly_Bulk_Scan" data-name="Iconly/Bulk/Scan" transform="translate(0 0)">
    <g id="Scan" transform="translate(0 0)">
      <path id="Combined_Shape" data-name="Combined Shape" d="M4.13,7.037a.261.261,0,0,1-.253-.252V5.62A2.122,2.122,0,0,1,6,3.5h5.166A2.114,2.114,0,0,1,13.291,5.62V6.785a.263.263,0,0,1-.256.252ZM15.744,5.391V3.654a2.282,2.282,0,0,0-2.3-2.257h-1.49A.705.705,0,0,1,11.24.7a.706.706,0,0,1,.712-.7h1.49a3.693,3.693,0,0,1,3.726,3.654V5.391a.712.712,0,1,1-1.424,0ZM0,5.39V3.648A3.69,3.69,0,0,1,3.717,0H5.238a.705.705,0,0,1,.711.7.7.7,0,0,1-.711.7H3.718A2.279,2.279,0,0,0,1.425,3.648V5.39a.706.706,0,0,1-.712.7A.706.706,0,0,1,0,5.39Z" transform="translate(1.706 0)" fill="#7da4ef" opacity="0.4"/>
      <path id="Fill_7" data-name="Fill 7" d="M19.867,0H.713A.706.706,0,0,0,0,.7a.705.705,0,0,0,.713.7h.992V4.729a3.691,3.691,0,0,0,3.72,3.65H6.947a.7.7,0,1,0,0-1.4H5.425a2.279,2.279,0,0,1-2.3-2.253V1.4H5.583v.927A2.122,2.122,0,0,0,7.706,4.443h5.167A2.122,2.122,0,0,0,15,2.324V1.4H17.45v3.33a2.282,2.282,0,0,1-2.3,2.257H13.657a.7.7,0,1,0,0,1.4h1.49a3.694,3.694,0,0,0,3.726-3.655V1.4h.993a.7.7,0,0,0,.713-.7.705.705,0,0,0-.712-.7" transform="translate(0 8.457)" fill="#7da4ef"/>
    </g>
  </g>
</svg>
