<svg xmlns="http://www.w3.org/2000/svg" width="22.085" height="24.513" viewBox="0 0 22.085 24.513">
  <g id="Iconly_Bold_Bag" data-name="Iconly/Bold/Bag" transform="translate(0)">
    <g id="Bag" transform="translate(0 0)">
      <path id="Combined_Shape" data-name="Combined Shape" d="M16.108,24.485H5.959c-2.3,0-3.886-.536-4.845-1.638-1-1.153-1.324-2.891-.985-5.322l.952-7.582A5,5,0,0,1,2.541,6.99a3.349,3.349,0,0,1,2.272-.867h.1a.831.831,0,0,1,0-.277,6.12,6.12,0,0,1,12.23,0h-.032a.633.633,0,0,1-.055.277h.192a3.266,3.266,0,0,1,2.236.895,5.371,5.371,0,0,1,1.506,2.924l.941,7.583A6.283,6.283,0,0,1,20.818,22.7,6.015,6.015,0,0,1,16.108,24.485ZM14.548,10.2a1.114,1.114,0,1,0,1.082,1.113A1.1,1.1,0,0,0,14.548,10.2Zm-7.081,0a1.114,1.114,0,1,0,1.082,1.113A1.1,1.1,0,0,0,7.467,10.2Zm3.508-8.605A4.262,4.262,0,0,0,6.711,5.847a.775.775,0,0,1,0,.277h8.582a.8.8,0,0,1-.053-.277,4.262,4.262,0,0,0-4.265-4.252Z" transform="translate(0.001 0.014)" fill="#7da4ef"/>
    </g>
  </g>
</svg>
