<svg xmlns="http://www.w3.org/2000/svg" width="30.698" height="40.931" viewBox="0 0 30.698 40.931">
  <g id="Group_10536" data-name="Group 10536" transform="translate(-249 -309)">
    <path id="location-pin-svgrepo-com" d="M23.349,0A15.35,15.35,0,0,0,8,15.349a15.109,15.109,0,0,0,2.913,8.909c.033.06.038.127.075.185L21.221,39.792a2.558,2.558,0,0,0,4.257,0L35.71,24.443c.038-.058.042-.125.075-.185A15.109,15.109,0,0,0,38.7,15.349,15.35,15.35,0,0,0,23.349,0Zm0,20.465a5.116,5.116,0,1,1,5.116-5.116A5.117,5.117,0,0,1,23.349,20.465Z" transform="translate(241 309)" fill="#74b960"/>
    <circle id="Ellipse_1002" data-name="Ellipse 1002" cx="12.5" cy="12.5" r="12.5" transform="translate(252 312)" fill="#548845"/>
    <g id="charging-pile-svgrepo-com_1_" data-name="charging-pile-svgrepo-com (1)" transform="translate(255.537 315.529)">
      <path id="Path_22180" data-name="Path 22180" d="M0,0H17.625V17.625H0Z" fill="none"/>
      <path id="Path_22181" data-name="Path 22181" d="M2.734,14.75V3.734A.734.734,0,0,1,3.469,3h6.609a.734.734,0,0,1,.734.734V9.609h1.469a1.469,1.469,0,0,1,1.469,1.469v2.938a.734.734,0,0,0,1.469,0V8.875H13.75a.734.734,0,0,1-.734-.734V5.507L11.8,4.29l1.038-1.038,3.635,3.635a.732.732,0,0,1,.215.519v6.609a2.2,2.2,0,1,1-4.406,0V11.078H10.813V14.75h.734v1.469H2V14.75ZM7.141,8.875V5.938L4.2,10.344h2.2v2.938L9.344,8.875Z" transform="translate(-0.531 -0.797)" fill="#f9f9f9"/>
    </g>
  </g>
</svg>
