<svg xmlns="http://www.w3.org/2000/svg" width="20.27" height="18.246" viewBox="0 0 20.27 18.246">
  <g id="Iconly_Bulk_Swap" data-name="Iconly/Bulk/Swap" transform="translate(0.039 0)">
    <g id="Swap" transform="translate(-0.039 0)">
      <path id="Fill_1" data-name="Fill 1" d="M1.207,0A.954.954,0,0,0,.26.961L0,5.6A1.216,1.216,0,0,0,1.207,6.825,1.216,1.216,0,0,0,2.413,5.6L2.154.961A.954.954,0,0,0,1.207,0" transform="translate(3.562 10.025)" fill="#212226" opacity="0.87"/>
      <path id="Fill_3" data-name="Fill 3" d="M6.061.682a4.682,4.682,0,0,0-.44-.405A1.39,1.39,0,0,0,4.776,0a1.451,1.451,0,0,0-.905.3c-.047.047-.243.224-.405.389a17.983,17.983,0,0,0-3.2,4.8A3.97,3.97,0,0,0,0,6.47a1.65,1.65,0,0,0,.173.74,1.511,1.511,0,0,0,.719.659,7.494,7.494,0,0,0,.845.212,18.218,18.218,0,0,0,3.026.2A21.15,21.15,0,0,0,7.7,8.108,6.444,6.444,0,0,0,8.75,7.825a1.485,1.485,0,0,0,.79-1.308V6.47a4.179,4.179,0,0,0-.325-1.1A17.982,17.982,0,0,0,6.061.682" transform="translate(0 0)" fill="#212226"/>
      <path id="Fill_6" data-name="Fill 6" d="M1.207,6.826a.954.954,0,0,0,.947-.961l.259-4.641A1.216,1.216,0,0,0,1.207,0,1.216,1.216,0,0,0,0,1.224L.26,5.865a.954.954,0,0,0,.947.961" transform="translate(14.294 1.394)" fill="#212226" opacity="0.87"/>
      <path id="Fill_8" data-name="Fill 8" d="M9.366,1.07A1.52,1.52,0,0,0,8.647.412,7.558,7.558,0,0,0,7.8.2,18.218,18.218,0,0,0,4.776,0,21.15,21.15,0,0,0,1.844.175,6.572,6.572,0,0,0,.789.459,1.483,1.483,0,0,0,0,1.765v.047A4.12,4.12,0,0,0,.325,2.9,17.933,17.933,0,0,0,3.477,7.6a4.561,4.561,0,0,0,.44.4,1.379,1.379,0,0,0,.847.283,1.453,1.453,0,0,0,.9-.3c.047-.047.243-.224.405-.387a18.017,18.017,0,0,0,3.2-4.8,3.933,3.933,0,0,0,.267-.976,1.651,1.651,0,0,0-.173-.742" transform="translate(10.731 9.962)" fill="#212226"/>
    </g>
  </g>
</svg>
