<svg xmlns="http://www.w3.org/2000/svg" width="16.759" height="16.688" viewBox="0 0 16.759 16.688">
  <g id="Tesla__Inc.-Logo.wine" data-name="Tesla,_Inc.-Logo.wine" transform="translate(-12.544)">
    <g id="Group_5462" data-name="Group 5462" transform="translate(12.544)">
      <path id="Path_21616" data-name="Path 21616" d="M31.319,39.628l2.345-13.186c2.235,0,2.94.245,3.042,1.245a5.271,5.271,0,0,0,2.255-1.694,16.568,16.568,0,0,0-5.915-1.429l-1.73,2.107h0l-1.73-2.107a16.567,16.567,0,0,0-5.915,1.429,5.267,5.267,0,0,0,2.255,1.694c.1-1,.806-1.245,3.026-1.247l2.364,13.188" transform="translate(-22.938 -22.941)" fill="#74b960"/>
      <path id="Path_21617" data-name="Path 21617" d="M20.924,1.015A19.318,19.318,0,0,1,28.834,2.6a6.423,6.423,0,0,0,.47-.969A22.94,22.94,0,0,0,20.923,0a22.937,22.937,0,0,0-8.379,1.633,8.107,8.107,0,0,0,.469.969,19.316,19.316,0,0,1,7.91-1.587h0" transform="translate(-12.544)" fill="#74b960"/>
    </g>
  </g>
</svg>
