<svg id="Iconly_Bulk_Bag" data-name="Iconly/Bulk/Bag" xmlns="http://www.w3.org/2000/svg" width="15.797" height="17.55" viewBox="0 0 15.797 17.55">
  <g id="Bag">
    <path id="Combined_Shape" data-name="Combined Shape" d="M11.548,13.163H4.273A4.368,4.368,0,0,1,.8,11.988C.081,11.162-.15,9.914.094,8.174L.776,2.738A3.583,3.583,0,0,1,1.823.621,2.4,2.4,0,0,1,3.452,0h8.911a2.34,2.34,0,0,1,1.6.642,3.853,3.853,0,0,1,1.08,2.1l.675,5.436a4.5,4.5,0,0,1-.8,3.712A4.312,4.312,0,0,1,11.548,13.163ZM10.431,2.921a.8.8,0,1,0,.776.8A.788.788,0,0,0,10.431,2.921Zm-5.08,0a.8.8,0,1,0,.776.8A.788.788,0,0,0,5.351,2.921Z" transform="translate(0 4.388)" fill="#7da4ef"/>
    <path id="Path_34167" d="M8.752,4.189a.44.44,0,0,1-.038.2H7.453a.569.569,0,0,1-.038-.2,3.057,3.057,0,0,0-6.114,0,.569.569,0,0,1,0,.2H.009a.569.569,0,0,1,0-.2,4.388,4.388,0,0,1,8.766,0Z" transform="translate(3.511)" fill="#7da4ef" opacity="0.4"/>
  </g>
</svg>
