<svg xmlns="http://www.w3.org/2000/svg" width="28.083" height="20.612" viewBox="0 0 28.083 20.612">
  <path id="wifi-high-svgrepo-com" d="M3.3,12.482a16.747,16.747,0,0,1,23.684,0,1.288,1.288,0,0,0,1.822-1.822,19.324,19.324,0,0,0-27.328,0A1.288,1.288,0,0,0,3.3,12.482Zm3.644,3.644a11.594,11.594,0,0,1,16.4,0A1.288,1.288,0,0,0,25.162,14.3a14.171,14.171,0,0,0-20.041,0,1.288,1.288,0,0,0,1.822,1.822Zm3.644,3.644a6.441,6.441,0,0,1,9.109,0,1.288,1.288,0,0,0,1.822-1.822,9.018,9.018,0,0,0-12.753,0,1.288,1.288,0,1,0,1.822,1.822Zm1.822,1.822a3.865,3.865,0,0,1,5.466,0,1.288,1.288,0,0,1,0,1.822l-1.822,1.822a1.288,1.288,0,0,1-1.822,0l-1.822-1.822A1.288,1.288,0,0,1,12.408,21.591Z" transform="translate(-1.1 -5)" fill="#7da4ef" fill-rule="evenodd"/>
</svg>
